<svg xmlns="http://www.w3.org/2000/svg" viewBox="0 0 119.74 65.84"><defs><style>.cls-1{isolation:isolate;}.cls-2{fill:#e88100;}.cls-3{fill:#eea67b;}.cls-4{fill:#444248;}.cls-5{fill:#7ec752;}.cls-6{fill:#64739a;}.cls-7{fill:#9cd47a;}.cls-8{fill:#b8b8b8;}.cls-9{fill:#c78b5b;}.cls-10{fill:#e5be84;}.cls-11{fill:#ead1b7;}.cls-12{fill:#f7eee5;}.cls-13{fill:#fea92c;}.cls-14{opacity:0.36;mix-blend-mode:multiply;}.cls-15{fill:#caa92c;}.cls-16{fill:#f7b896;}.cls-17{fill:#fff;}</style></defs><title>Recurso 1</title><g class="cls-1"><g id="Capa_2" data-name="Capa 2"><g id="Layer_1" data-name="Layer 1"><path class="cls-2" d="M36.84,30.4a.88.88,0,0,1-.77-.48L32.74,23a1.28,1.28,0,0,1-.12-.61A1.57,1.57,0,0,1,35,21a1.91,1.91,0,0,1,.72.72l2.36,4.89a.84.84,0,0,0,.65.44l7.29.57,0,2.67Z"/><path class="cls-3" d="M46.31,27.63l-.31,0,0,2.67.3,0a1.38,1.38,0,1,0,0-2.72Z"/><polygon class="cls-4" points="80 55.12 80 28.6 80 24.01 76.35 24.01 75.5 24.01 75.5 3.47 70.4 3.47 68.7 3.47 66.02 3.47 66.02 12.71 68.7 12.71 68.7 52.22 75.5 52.22 75.5 28.6 76.35 28.6 76.35 57.68 78.72 57.68 80 57.68 119.74 57.68 119.74 55.12 80 55.12"/><rect class="cls-5" x="71.34" y="3.47" width="1.72" height="48.75"/><path class="cls-4" d="M53.91,6.25a5.21,5.21,0,0,0-4.18-3L15.48,0A2.28,2.28,0,0,0,13,2.27V27.86l4.38,3.92v-25a2.28,2.28,0,0,1,2.52-2.27L47.12,7.05a5.23,5.23,0,0,1,4.2,3L56.92,29l.28.6h4.52Z"/><path class="cls-4" d="M54.13,33.62l-3.94-6c1.25-1.79,1.45-3.28.59-3.48s-2.35.81-3.61,2.27-2.12,3.33-1.7,4.09,1.82.23,3.28-1.19l3.31,4.63Zm-7.6-4.44c-.32-.41.15-1.54,1-2.54s1.84-1.61,2.32-1.43.24,1.35-.75,2.56S46.89,29.64,46.53,29.18Z"/><polygon class="cls-6" points="52.08 27.45 45.68 32.48 45.68 50.53 53.81 50.53 53.81 27.45 52.08 27.45"/><path class="cls-6" d="M29.18,34.81c-.45-1.17-1.09-4.75-1.76-7.79-.33-1.52-1.25-3-2.8-3.18h0c-1.21-.07-2.43-.11-3.63-.14a.75.75,0,0,0-.77.78c.2,4.11.93,11.75,3.63,15.24,3.79,4.91,8.87,11.71,8.87,11.71h8L39.13,39s.22-1.14-7.78-2.06C30.37,36.82,29.53,35.72,29.18,34.81Z"/><path class="cls-5" d="M60.72,27.39H51.61S53.49,48.07,50,48.07H33.27l-4.72-11L12.73,26C7.27,26,4.16,29,1.67,33.88L1.61,34A14.53,14.53,0,0,0,0,40.64v13c0,3.08.62,5.58,3.7,5.58H68c-6.23-12.92,1.71-14.8,1.71-14.8S61.86,30.07,60.72,27.39Z"/><path class="cls-7" d="M17.57,41.68A13.68,13.68,0,0,0,4.38,59.17H7.55a12.15,12.15,0,0,1-.2-2.1c0-6.32,4.58-11.44,10.22-11.44s10.22,5.12,10.22,11.44a12.15,12.15,0,0,1-.2,2.1h3.17A13.68,13.68,0,0,0,17.57,41.68Z"/><path class="cls-7" d="M71.92,49.52l2.22-3.62A13.72,13.72,0,0,0,51.05,59.17h3.17a13.22,13.22,0,0,1-.2-2.1c0-6.32,4.58-11.44,10.23-11.44A9.75,9.75,0,0,1,71.92,49.52Z"/><circle class="cls-4" cx="64.25" cy="55.41" r="10.44" transform="translate(-4.49 105.13) rotate(-76.66)"/><path class="cls-8" d="M70.64,55.41A6.4,6.4,0,1,1,64.25,49,6.39,6.39,0,0,1,70.64,55.41Z"/><circle class="cls-4" cx="17.57" cy="55.41" r="10.44" transform="translate(-32.45 25.8) rotate(-41.79)"/><path class="cls-8" d="M24,55.41A6.39,6.39,0,1,1,17.57,49,6.39,6.39,0,0,1,24,55.41Z"/><path class="cls-4" d="M66.94,55.41a2.7,2.7,0,1,1-2.69-2.7A2.69,2.69,0,0,1,66.94,55.41Z"/><path class="cls-4" d="M20.27,55.41a2.7,2.7,0,1,1-2.7-2.7A2.7,2.7,0,0,1,20.27,55.41Z"/><rect class="cls-9" x="93.06" y="38.33" width="12.19" height="16.81"/><rect class="cls-10" x="81.32" y="38.33" width="17.05" height="16.81"/><rect class="cls-11" x="87.56" y="38.33" width="4.58" height="4.33"/><rect class="cls-11" x="87.56" y="50.81" width="4.58" height="4.33"/><rect class="cls-12" x="82.13" y="51.69" width="4.42" height="2.67"/><rect class="cls-4" x="82.34" y="52.07" width="0.47" height="1.92"/><rect class="cls-4" x="83.09" y="52.07" width="0.16" height="1.92"/><rect class="cls-4" x="83.93" y="52.07" width="0.38" height="1.92"/><rect class="cls-4" x="83.44" y="52.07" width="0.23" height="1.92"/><rect class="cls-4" x="84.6" y="52.07" width="0.16" height="1.92"/><rect class="cls-4" x="85.35" y="52.07" width="0.32" height="1.92"/><rect class="cls-4" x="85.78" y="52.07" width="0.16" height="1.92"/><rect class="cls-4" x="84.99" y="52.07" width="0.22" height="1.92"/><rect class="cls-4" x="86.11" y="52.07" width="0.23" height="1.92"/><rect class="cls-10" x="100.2" y="38.33" width="17.05" height="16.81"/><rect class="cls-11" x="106.44" y="38.33" width="4.58" height="4.33"/><rect class="cls-11" x="106.44" y="50.81" width="4.58" height="4.33"/><rect class="cls-12" x="101.02" y="51.69" width="4.42" height="2.67"/><rect class="cls-4" x="101.22" y="52.07" width="0.47" height="1.92"/><rect class="cls-4" x="101.98" y="52.07" width="0.16" height="1.92"/><rect class="cls-4" x="102.82" y="52.07" width="0.38" height="1.92"/><rect class="cls-4" x="102.33" y="52.07" width="0.23" height="1.92"/><rect class="cls-4" x="103.49" y="52.07" width="0.16" height="1.92"/><rect class="cls-4" x="104.24" y="52.07" width="0.32" height="1.92"/><rect class="cls-4" x="104.67" y="52.07" width="0.16" height="1.92"/><rect class="cls-4" x="103.88" y="52.07" width="0.22" height="1.92"/><rect class="cls-4" x="104.99" y="52.07" width="0.23" height="1.92"/><rect class="cls-10" x="90.81" y="21.52" width="17.05" height="16.81"/><rect class="cls-11" x="97.05" y="21.52" width="4.58" height="4.33"/><rect class="cls-11" x="97.05" y="34" width="4.58" height="4.33"/><rect class="cls-12" x="91.63" y="34.88" width="4.42" height="2.67"/><rect class="cls-4" x="91.83" y="35.26" width="0.47" height="1.92"/><rect class="cls-4" x="92.58" y="35.26" width="0.16" height="1.92"/><rect class="cls-4" x="93.42" y="35.26" width="0.38" height="1.92"/><rect class="cls-4" x="92.94" y="35.26" width="0.23" height="1.92"/><rect class="cls-4" x="94.09" y="35.26" width="0.16" height="1.92"/><rect class="cls-4" x="94.85" y="35.26" width="0.32" height="1.92"/><rect class="cls-4" x="95.27" y="35.26" width="0.16" height="1.92"/><rect class="cls-4" x="94.49" y="35.26" width="0.22" height="1.92"/><rect class="cls-4" x="95.6" y="35.26" width="0.23" height="1.92"/><polygon class="cls-3" points="32.32 17.99 32.2 22.11 34.35 22.15 34.53 18.02 32.32 17.99"/><path class="cls-2" d="M37.73,32.4l5.9,3.48a2,2,0,0,1,1,1.9l-.82,8.07H39.7l-.13-7.21-6.84-1.48a2.88,2.88,0,0,1-2.28-2.82V32Z"/><path class="cls-4" d="M40,45.85v2.26h5.8s1.09-1.54-2-2.26Z"/><path class="cls-13" d="M42.54,35.88l-4.37-3.27a45,45,0,0,0-1.45-8.89,5.71,5.71,0,0,0-2.09-3.2,3.52,3.52,0,0,1-.66.06,3.46,3.46,0,0,1-1.85-.5,3.48,3.48,0,0,0-2.4,2.74,43.55,43.55,0,0,0-.45,9.79l.09,1.73a2.88,2.88,0,0,0,2.28,2.82l6.84,1.48.13,7.21h4.07l.82-8.07A2,2,0,0,0,42.54,35.88Z"/><g class="cls-14"><path class="cls-15" d="M36.85,27.49,34.49,22.6a1.94,1.94,0,0,0-.72-.73,1.58,1.58,0,0,0-2.36,1.37,1.29,1.29,0,0,0,.13.61l2.57,7a.82.82,0,0,0,.77.48h3.2s-.18-2.1-.22-3.18C37.79,28.12,36.9,27.57,36.85,27.49Z"/></g><path class="cls-13" d="M36,30.61a.82.82,0,0,1-.77-.48l-3.33-6.91a1.28,1.28,0,0,1-.12-.61,1.57,1.57,0,0,1,2.35-1.37,2,2,0,0,1,.73.73l2.36,4.89a.84.84,0,0,0,.65.44l7.29.57,0,2.66Z"/><path class="cls-16" d="M45.45,27.85a1.51,1.51,0,0,0-.3,0l0,2.66a1.55,1.55,0,0,0,.31,0,1.38,1.38,0,1,0,0-2.71Z"/><path class="cls-4" d="M38.89,8.17c-.46.57-2.15.49-5.52-.14a4.24,4.24,0,0,0-3.52.69c-1.49,1.31-1.81,3-1.31,5.48a3.75,3.75,0,0,0,2.59,2.62A12.57,12.57,0,0,1,31,14.76S30.92,14,30.73,13a.78.78,0,0,1,.38.55H32a4.12,4.12,0,0,1,.14-2c.34-.74.17-.28,4-.28a4.08,4.08,0,0,0,1.61-.28C39.54,10.29,38.89,8.17,38.89,8.17Z"/><path class="cls-16" d="M32.12,11.37a4.12,4.12,0,0,0-.14,2h-.87a.78.78,0,0,0-.72-.66.93.93,0,0,0-.91.84.68.68,0,0,0,0,.14,1.41,1.41,0,0,0,1.4,1.42H31v1.06a3.32,3.32,0,0,0,3.32,3.32h.07a3.31,3.31,0,0,0,3.32-3.32V10.81a4.1,4.1,0,0,1-1.61.27C32.29,11.08,32.46,10.63,32.12,11.37Z"/><circle class="cls-4" cx="36.13" cy="14.08" r="0.46"/><path class="cls-17" d="M37.34,17.61a2.37,2.37,0,0,0,.34-1.36H36.2S36.36,17.45,37.34,17.61Z"/><rect class="cls-4" x="35.44" y="12.77" width="1.26" height="0.36" rx="0.17"/><path class="cls-4" d="M38.89,45.85v2.26h5.8s1.1-1.54-2-2.26Z"/></g></g></g></svg>